# xmcd
#
# Track frame offsets:
#	150
#	15551
#	25461
#	41245
#	55732
#	65870
#	78835
#	92296
#	108834
#	120234
#	131520
#	141758
#
# Disc length: 2081 seconds
#
# Revision: 1
# Processed by: cddbd v1.5.2PL0 Copyright (c) Steve Scherf et al.
# Submitted via: audiograbber 1.83.01
#
DISCID=95081f0c
DTITLE=Lynn Pratt - The Silver Cat
DYEAR=2000
DGENRE=Country
TTITLE0=Going To Memphis Blues
TTITLE1=Picking Up The Pieces
TTITLE2=Sunny California Shores
TTITLE3=Secret Kisses
TTITLE4=I Don't Need
TTITLE5=At Night Time
TTITLE6=The Nashville Blues
TTITLE7=I Think I'll Start Smoking
TTITLE8=Country Livin'
TTITLE9=Breaking Hearts Never Pays
TTITLE10=Gypsy Told Me
TTITLE11=Tennessee Boogie Rock
EXTD=
EXTT0=
EXTT1=
EXTT2=
EXTT3=
EXTT4=
EXTT5=
EXTT6=
EXTT7=
EXTT8=
EXTT9=
EXTT10=
EXTT11=
PLAYORDER=
